HIERARCHY
ROOT Hips
{
     OFFSET 18.08120 95.82680 -39.24110
     CHANNELS 6 Xposition Yposition Zposition Zrotation Xrotation Yrotation
     JOINT Spine
     {
          OFFSET 0.00000 11.89050 0.00000
          CHANNELS 3 Zrotation Xrotation Yrotation
          JOINT Spine1
          {
               OFFSET 0.00000 25.65740 0.12766
               CHANNELS 3 Zrotation Xrotation Yrotation
               JOINT HEad
               {
                    OFFSET 0.00000 8.73416 0.01134
                    CHANNELS 3 Zrotation Xrotation Yrotation
                    End Site
                    {
                         OFFSET -0.29000 12.77420 2.51395
                    }
               }
               JOINT LeftShoulder1
               {
                    OFFSET 8.99000 -0.36225 -0.22000
                    CHANNELS 3 Zrotation Xrotation Yrotation
                    JOINT LeftArm
                    {
                         OFFSET 10.28270 -0.00338 0.32212
                         CHANNELS 3 Zrotation Xrotation Yrotation
                         JOINT LeftForeArm
                         {
                              OFFSET 32.76690 0.09914 -1.42434
                              CHANNELS 3 Zrotation Xrotation Yrotation
                              JOINT LeftHand
                              {
                                   OFFSET 27.56430 0.08536 1.02216
                                   CHANNELS 3 Zrotation Xrotation Yrotation
                                   End Site
                                   {
                                        OFFSET 16.74430 -0.60000 1.50291
                                   }
                              }
                         }
                    }
               }
               JOINT RightShoulder
               {
                    OFFSET -8.99000 -0.36225 -0.22000
                    CHANNELS 3 Zrotation Xrotation Yrotation
                    JOINT RightArm
                    {
                         OFFSET -10.28270 -0.00338 0.32212
                         CHANNELS 3 Zrotation Xrotation Yrotation
                         JOINT RightForeArm
                         {
                              OFFSET -32.89710 0.09914 -1.42434
                              CHANNELS 3 Zrotation Xrotation Yrotation
                              JOINT RightHand
                              {
                                   OFFSET -27.49210 0.08536 1.02216
                                   CHANNELS 3 Zrotation Xrotation Yrotation
                                   End Site
                                   {
                                        OFFSET -16.63120 -0.60000 1.50291
                                   }
                              }
                         }
                    }
               }
          }
     }
     JOINT LeftUpLeg
     {
          OFFSET 8.94580 -8.66707 0.10165
          CHANNELS 3 Zrotation Xrotation Yrotation
          JOINT LeftLeg
          {
               OFFSET 0.00000 -44.42270 1.37270
               CHANNELS 3 Zrotation Xrotation Yrotation
               JOINT LeftFoot
               {
                    OFFSET -0.25355 -42.09240 -1.46059
                    CHANNELS 3 Zrotation Xrotation Yrotation
                    JOINT LeftToes
                    {
                         OFFSET -0.04000 -4.41509 8.49910
                         CHANNELS 3 Zrotation Xrotation Yrotation
                         End Site
                         {
                              OFFSET 0.08000 -0.04745 9.77979
                         }
                    }
               }
          }
     }
     JOINT RightUpLeg
     {
          OFFSET -8.94580 -8.66707 0.10165
          CHANNELS 3 Zrotation Xrotation Yrotation
          JOINT RightLeg
          {
               OFFSET 0.00000 -44.42270 1.37270
               CHANNELS 3 Zrotation Xrotation Yrotation
               JOINT RightFoot
               {
                    OFFSET 0.25355 -42.09240 -1.46059
                    CHANNELS 3 Zrotation Xrotation Yrotation
                    JOINT RightToes
                    {
                         OFFSET 0.04000 -4.41509 8.49910
                         CHANNELS 3 Zrotation Xrotation Yrotation
                         End Site
                         {
                              OFFSET -0.08000 -0.13745 9.77979
                         }
                    }
               }
          }
     }
}
MOTION
Frames: 12
Frame Time: 0.01667
67.29740 94.93550 59.60900 -10.03720 -22.02110 26.98330 6.58259 5.11955 7.23022 11.33990 11.38310 14.64760 4.62162 1.09892 -37.15530 0.00000 0.00000 0.00000 -22.17770 -8.17102 34.59450 -26.51650 10.69160 -43.09740 17.97800 7.27455 -13.03050 3.75332 0.58789 4.07523 40.01170 -21.27540 64.56960 -18.60630 21.60970 75.55910 3.33690 10.25110 5.68238 11.13570 -11.61500 -0.89586 -5.82204 42.26200 30.44730 10.40520 -3.61991 -0.36321 -44.79970 -29.19440 -35.45400 -12.85740 -2.47238 -10.61770 33.48470 83.49680 -24.42950 35.99680 20.65150 -9.11317 28.59060 53.65280 -34.30040 
67.25290 96.06740 60.12270 -8.09320 -25.20440 35.23030 7.14515 5.27106 6.74876 13.10790 11.52760 13.24580 6.13411 2.39982 -40.59710 0.00000 0.00000 0.00000 -17.49920 -11.80700 30.69050 -28.36490 12.66320 -48.68120 18.70780 6.92039 -14.52670 5.10037 0.59182 3.33328 34.41220 -21.95030 58.34490 -18.32450 20.60230 70.39380 2.27351 10.17290 6.20073 11.96990 -8.33816 -2.30474 -4.16708 40.23980 24.00880 8.12341 -4.13375 -0.24219 -40.18390 -27.10370 -32.52910 -14.28460 -7.22128 -14.52310 163.82899 87.96820 -154.78400 35.62020 21.63800 -9.32125 28.57540 51.78890 -36.96020 
67.01760 97.27740 60.57710 -5.59610 -28.48910 44.18630 7.80226 5.39274 5.99972 14.94690 11.61480 11.39950 8.04576 3.68751 -43.84050 0.00000 0.00000 0.00000 -15.76970 -16.47740 24.38100 -29.18260 14.84380 -54.63810 18.52330 6.77088 -15.65530 7.26332 0.60514 2.54723 29.47120 -22.67320 51.32550 -17.56230 19.58030 65.27570 0.58630 10.02660 6.78969 13.91890 -5.36194 -3.85763 -3.60287 38.09420 19.61470 5.86979 -4.40193 -0.15684 -35.94500 -24.56520 -30.38390 -16.23580 -12.12470 -17.14930 -165.60001 82.24110 174.86800 35.46400 22.75510 -9.62720 28.41990 50.84760 -38.07100 
66.59380 98.53830 61.09810 -2.35912 -31.75550 54.10700 8.60682 5.48353 4.94759 16.74710 11.64190 9.11123 10.28680 4.69740 -46.80660 0.00000 0.00000 0.00000 -17.52780 -21.33790 14.98410 -29.17880 17.07740 -60.65130 17.74980 6.82413 -16.21060 10.25140 0.60706 1.70318 24.97800 -23.69720 43.80260 -16.50370 18.38410 60.31220 -1.42834 9.82916 7.50914 16.92000 -2.89773 -5.61428 -4.11615 35.81240 17.88290 3.84771 -3.86760 -0.12018 -33.40540 -22.24900 -30.05880 -18.89020 -16.57140 -17.45640 -166.34599 78.77950 176.15601 35.08360 23.76730 -9.83110 27.98390 50.64960 -37.49160 
65.97230 99.72720 61.78540 1.79742 -34.78150 65.12500 9.53153 5.61700 3.57920 18.43460 11.71010 6.32528 12.65350 5.17981 -49.17330 0.00000 0.00000 0.00000 -22.87540 -25.45500 2.34327 -28.48330 19.60220 -66.36970 17.26620 6.91185 -16.21840 13.85880 0.57560 0.83540 20.64530 -24.96080 36.19840 -15.29390 16.84470 55.47150 -3.23794 9.62721 8.29295 20.77620 -1.26383 -7.39058 -5.50291 33.63910 18.95590 2.37219 -2.40629 -0.11019 -33.30560 -20.94840 -31.67020 -22.34400 -20.12710 -16.74670 -167.30000 77.53530 177.36000 33.94320 24.10990 -9.59536 27.46420 50.55160 -36.57830 
65.18600 100.79500 62.69010 6.93495 -37.31660 77.03470 10.53730 5.85860 1.93958 19.98980 11.96980 3.09357 14.93900 5.04085 -50.56910 0.00000 0.00000 0.00000 -31.27970 -27.80630 -12.86100 -26.96370 22.63880 -71.52000 17.76690 6.87711 -15.84530 17.82730 0.50983 0.04276 16.32200 -26.18490 28.96640 -13.76730 14.80850 50.73630 -4.38984 9.47760 9.04394 25.21480 -0.41001 -8.78774 -7.43368 31.50820 22.40840 1.95149 -0.51748 -0.13432 -35.15110 -21.01800 -33.97250 -26.62110 -22.54500 -15.30280 -168.67101 78.48200 178.20000 31.66480 23.62550 -8.78286 26.88230 49.86480 -36.41930 
64.28830 101.67900 63.83440 12.85590 -39.12430 89.19130 11.50530 6.27456 0.19289 21.41330 12.56430 -0.36748 17.05350 4.39282 -50.77330 0.00000 0.00000 0.00000 -41.32730 -27.41280 -29.09280 -24.44460 25.92200 -75.95880 19.32590 6.71544 -15.12690 21.96160 0.42740 -0.59142 12.09380 -27.15150 22.46450 -11.48400 12.12350 46.32430 -4.83945 9.39805 9.81038 29.87800 -0.10682 -9.32515 -9.50051 29.47080 27.09990 2.66091 0.54808 -0.20969 -36.78310 -22.13910 -34.54120 -31.53870 -24.03940 -13.19400 -172.17999 81.58180 -179.67000 28.56340 22.28250 -7.55095 26.22790 48.44760 -37.24320 
63.35780 102.32000 65.15660 19.10540 -40.16400 100.78700 12.55270 6.85421 -1.53579 22.74270 13.52990 -3.78136 19.01500 3.50913 -49.76010 0.00000 0.00000 0.00000 -50.78060 -23.88050 -44.23870 -21.06530 28.69240 -79.63130 21.43350 6.56051 -13.97650 26.02620 0.34363 -1.05751 8.31597 -27.80930 16.93610 -8.09624 8.62407 42.70820 -5.08730 9.32832 10.84230 34.45050 -0.02774 -8.70159 -11.27120 27.52830 31.49540 3.92707 -0.01410 -0.27798 -36.17490 -23.56060 -31.94820 -36.82920 -24.96890 -9.51400 148.93800 86.39330 -142.59900 25.44760 20.55440 -6.31914 25.60010 46.93970 -38.31770 
62.44350 102.64400 66.61300 25.03890 -40.54290 110.97000 13.65690 7.58511 -3.10240 23.96940 14.77280 -6.92804 20.81390 2.71976 -47.65380 0.00000 0.00000 0.00000 -57.63470 -17.94310 -56.63100 -17.30960 30.06510 -82.43600 23.44430 6.54083 -12.44110 29.65360 0.26286 -1.39784 5.48074 -28.18750 12.53070 -3.66466 4.28811 40.40240 -5.95465 9.13784 12.50420 38.59580 -0.02005 -6.97914 -12.42880 25.77390 34.62770 5.09721 -1.97838 -0.25728 -33.52080 -24.33890 -27.49640 -42.05640 -25.82570 -5.68745 49.68950 82.75100 -45.56160 23.26340 18.90360 -5.43292 26.12930 46.71190 -39.88790 
61.57450 102.63200 68.16520 30.03320 -40.56320 119.03500 14.57740 8.41973 -4.35678 25.02730 16.08380 -9.64763 22.31150 2.32133 -44.62630 0.00000 0.00000 0.00000 -61.23840 -11.18990 -65.84700 -13.77290 29.53300 -84.18470 25.03440 6.68499 -10.66790 32.47200 0.18984 -1.64505 3.91518 -28.37050 9.32439 1.12545 -0.25317 39.71270 -7.95743 8.68587 14.98090 42.02340 -0.13728 -4.63745 -12.87600 24.40740 36.48870 6.00991 -4.69639 -0.14356 -30.55480 -24.17970 -23.60210 -46.85420 -26.92130 -2.70392 30.16770 72.35130 -29.01480 22.27160 17.55650 -4.94034 29.25610 48.73910 -43.14220 
60.80060 102.38600 69.84330 33.72550 -40.62410 124.63100 14.81690 9.26473 -5.16807 25.78090 17.22850 -11.80350 23.30040 2.51599 -40.80720 0.00000 0.00000 0.00000 -62.22470 -5.19979 -72.27650 -10.98100 27.27980 -84.70150 26.22540 6.94466 -8.81532 34.31980 0.13747 -1.79928 3.56137 -28.61410 7.33467 4.80064 -3.31655 40.51030 -10.73230 7.98952 17.51500 44.69590 -0.50101 -2.39675 -12.76030 23.55010 37.68620 6.88201 -7.49626 0.02007 -28.55010 -23.63340 -21.40060 -50.82610 -28.43090 -1.49313 20.34800 59.71570 -23.67160 22.21580 15.51620 -4.54273 36.91590 52.98500 -50.42230 
60.22300 102.08600 71.65990 36.14470 -41.04120 127.96300 14.15360 9.91994 -5.56472 26.12090 18.03120 -13.27760 23.66500 3.35321 -36.30720 0.00000 0.00000 0.00000 -61.74890 -0.93136 -76.38490 -9.29828 24.06040 -83.95700 27.10210 7.23257 -7.14394 35.32710 0.11587 -1.85800 4.02277 -29.32710 6.50549 5.71513 -3.18120 42.23400 -13.15600 7.43363 18.29940 46.90210 -1.17967 -0.82953 -12.40670 23.18120 38.83740 7.99498 -9.75822 0.19228 -27.84500 -23.28390 -20.80790 -53.70300 -30.30700 -2.28597 12.75880 45.73560 -22.47430 23.02220 10.62690 -3.75601 50.57660 57.28980 -64.17320 
